<svg width="144" height="144" viewBox="0 0 144 144" fill="none" xmlns="http://www.w3.org/2000/svg">
<rect x="30" y="46" width="84" height="53" rx="8" fill="#FF8F00"/>
<path d="M44.1974 85V58.8182H53.8239C55.8438 58.8182 57.5313 59.1932 58.8864 59.9432C60.2415 60.6847 61.2642 61.7031 61.9545 62.9986C62.6449 64.294 62.9901 65.7642 62.9901 67.4091C62.9901 69.0625 62.6406 70.5369 61.9418 71.8324C61.2514 73.1278 60.2244 74.1506 58.8608 74.9006C57.4972 75.642 55.8054 76.0128 53.7855 76.0128H47.304V72.331H53.2486C54.4759 72.331 55.473 72.1179 56.2401 71.6918C57.0071 71.2656 57.5739 70.6861 57.9403 69.9531C58.3068 69.2116 58.4901 68.3636 58.4901 67.4091C58.4901 66.4631 58.3068 65.6236 57.9403 64.8906C57.5739 64.1577 57.0028 63.5866 56.2273 63.1776C55.4602 62.7599 54.4588 62.5511 53.223 62.5511H48.6207V85H44.1974ZM65.1351 85V58.8182H81.7033V62.5639H69.5584V70.017H80.5399V73.7628H69.5584V85H65.1351ZM84.0688 85V58.8182H88.4921V81.2543H100.164V85H84.0688Z" fill="white"/>
</svg>
