<svg width="144" height="144" viewBox="0 0 144 144" fill="none" xmlns="http://www.w3.org/2000/svg">
<path fill-rule="evenodd" clip-rule="evenodd" d="M123 74.0714V95.2865C122.853 103.661 115.809 110.5 107.003 110.5C101.719 110.5 97.4633 106.452 97.4633 101.428V77.142C97.4633 72.1174 101.719 68.0698 107.003 68.0698C109.204 68.0698 109.498 68.0698 110.232 68.2094C107.737 48.5296 93.0604 37.5033 71.9266 37.5033C50.7928 37.5033 36.1165 48.5296 33.6216 68.2094C34.3554 68.2094 34.6489 68.0698 36.8504 68.0698C42.1338 68.0698 46.3899 72.1174 46.3899 77.142V101.428C46.3899 106.452 42.1338 110.5 36.8504 110.5C28.0446 110.5 21.1468 103.661 21.1468 95.2865L21 74.0714C21 47.2734 43.895 25.5 72.0734 25.5C100.105 25.5 123 47.1338 122.853 73.9319C122.853 73.9319 122.853 74.0714 123 74.0714Z" fill="white"/>
</svg>
