<svg width="144" height="144" viewBox="0 0 144 144" fill="none" xmlns="http://www.w3.org/2000/svg">
<path d="M96.1429 22H46.8571C41.4357 22 37 26.455 37 31.9V111.1C37 116.545 41.4357 120.95 46.8571 120.95L96.1429 121C101.564 121 106 116.545 106 111.1V31.9C106 26.455 101.564 22 96.1429 22ZM71.5 31.9C76.9214 31.9 81.3571 36.355 81.3571 41.8C81.3571 47.245 76.9214 51.7 71.5 51.7C66.0293 51.7 61.6429 47.245 61.6429 41.8C61.6429 36.355 66.0293 31.9 71.5 31.9ZM71.5 111.1C57.8971 111.1 46.8571 100.012 46.8571 86.35C46.8571 72.688 57.8971 61.6 71.5 61.6C85.1029 61.6 96.1429 72.688 96.1429 86.35C96.1429 100.012 85.1029 111.1 71.5 111.1Z" fill="white"/>
</svg>
