<svg width="259" height="58" viewBox="0 0 259 58" fill="none" xmlns="http://www.w3.org/2000/svg">
<path d="M0 47.0092V9.47053H14.881C20.6065 9.47053 25.2392 11.1738 28.776 14.5867C32.316 17.9996 34.0844 22.5501 34.0844 28.2383C34.0844 34.1771 31.8796 38.9172 27.4731 42.449C23.6648 45.4891 19.2034 47.006 14.0825 47.006H0V47.0092ZM6.72118 40.9675H11.7354C16.2518 40.9675 19.8435 39.997 22.5106 38.0528C25.5334 35.861 27.0464 32.5895 27.0464 28.2415C27.0464 19.7606 22.3167 15.5154 12.8572 15.5154H6.72118V40.9675Z" fill="#ECEFF0"/>
<path d="M41.2776 47.0092V9.47053H47.9955V24.4237H65.6536V9.47053H72.3748V47.0092H65.6536V30.4685H47.9955V47.0092H41.2776Z" fill="#ECEFF0"/>
<path d="M81.595 47.0092V9.47053H96.476C102.201 9.47053 106.834 11.1738 110.374 14.5867C113.911 17.9996 115.679 22.5501 115.679 28.2415C115.679 34.1803 113.478 38.9204 109.068 42.4522C105.263 45.4924 100.802 47.0092 95.6775 47.0092H81.595ZM88.3129 40.9675H93.3271C97.8435 40.9675 101.435 39.997 104.102 38.0528C107.125 35.861 108.635 32.5895 108.635 28.2415C108.635 19.7606 103.908 15.5154 94.4457 15.5154H88.3097V40.9675H88.3129Z" fill="#ECEFF0"/>
<path d="M138.491 29.0802L135.785 26.2908C138.258 23.9641 141.397 22.804 145.205 22.804C148.513 22.804 151.054 23.601 152.822 25.1949C154.361 26.6218 155.127 28.4504 155.127 30.6742V42.7286C155.127 44.4897 155.195 45.9134 155.327 47.0092H151.322C151.222 45.8169 151.17 44.6215 151.17 43.426H151.07C149.233 46.2154 146.46 47.6102 142.752 47.6102C140.446 47.6102 138.526 46.9964 136.987 45.7687C135.351 44.4736 134.53 42.7318 134.53 40.5369C134.53 35.0898 138.891 32.3678 147.611 32.3678H150.918V31.3716C150.918 30.0411 150.449 28.9163 149.515 27.9844C148.48 26.9207 147.058 26.3904 145.254 26.3904C143.75 26.3904 142.396 26.6893 141.193 27.287C140.631 27.5538 139.729 28.1483 138.491 29.0802ZM150.921 35.6554H148.513C142.199 35.6554 139.043 37.1658 139.043 40.1866C139.043 42.7447 140.747 44.0237 144.155 44.0237C146.46 44.0237 148.212 43.2782 149.418 41.7838C150.42 40.553 150.921 39.0104 150.921 37.1497V35.6554Z" fill="#ECEFF0"/>
<path d="M183.386 23.4017V47.0092H178.876V43.3746C178.275 44.6343 177.266 45.6563 175.853 46.4372C174.444 47.2181 172.831 47.6069 171.01 47.6069C168.521 47.6069 166.507 46.8903 164.965 45.4667C163.219 43.8727 162.34 41.5813 162.34 38.5927V23.4017H166.85V37.349C166.85 39.4411 167.403 41.0029 168.505 42.028C169.439 42.96 170.694 43.426 172.262 43.426C174.23 43.426 175.827 42.7704 177.046 41.456C178.265 40.1448 178.876 38.1781 178.876 35.5557V23.4017H183.386Z" fill="#ECEFF0"/>
<path d="M214.748 9.35484V47.0092H210.238V43.6252C209.369 44.8528 208.176 45.8266 206.663 46.5368C205.15 47.2502 203.572 47.6102 201.927 47.6102C198.303 47.6102 195.37 46.4308 193.14 44.0751C190.909 41.7163 189.79 38.7598 189.79 35.2087C189.79 31.6222 190.909 28.6593 193.14 26.3165C195.37 23.9737 198.299 22.804 201.927 22.804C203.64 22.804 205.25 23.1607 206.763 23.8741C208.273 24.5876 209.433 25.5613 210.235 26.7889V9.35484H214.748ZM202.399 43.426C204.778 43.426 206.682 42.6611 208.101 41.1347C209.53 39.605 210.238 37.6318 210.238 35.2087C210.238 32.7856 209.527 30.8092 208.101 29.2827C206.679 27.753 204.775 26.9914 202.399 26.9914C200.016 26.9914 198.112 27.753 196.693 29.2827C195.264 30.8092 194.556 32.7856 194.556 35.2087C194.556 37.635 195.264 39.6082 196.693 41.1347C198.112 42.6611 200.016 43.426 202.399 43.426Z" fill="#ECEFF0"/>
<path d="M222.562 47.0092V23.4017H227.072V47.0092H222.562ZM221.508 14.9337C221.508 14.0371 221.835 13.2659 222.484 12.6167C223.137 11.9708 223.913 11.6462 224.815 11.6462C225.717 11.6462 226.493 11.9675 227.146 12.6167C227.796 13.2659 228.123 14.0371 228.123 14.9337C228.123 15.8303 227.796 16.6016 227.146 17.2508C226.493 17.8999 225.717 18.2213 224.815 18.2213C223.913 18.2213 223.137 17.8999 222.484 17.2508C221.835 16.6016 221.508 15.8303 221.508 14.9337Z" fill="#ECEFF0"/>
<path d="M238.542 35.2055C238.542 37.6318 239.25 39.605 240.679 41.1314C242.099 42.6579 244.003 43.4228 246.382 43.4228C248.762 43.4228 250.666 42.6579 252.085 41.1314C253.514 39.6017 254.225 37.6286 254.225 35.2055C254.225 32.7824 253.514 30.806 252.085 29.2795C250.666 27.7498 248.762 26.9882 246.382 26.9882C244.003 26.9882 242.099 27.7498 240.679 29.2795C239.25 30.806 238.542 32.7824 238.542 35.2055ZM233.78 35.2055C233.78 31.7508 234.999 28.8231 237.43 26.4129C239.871 24.0059 242.852 22.8008 246.382 22.8008C249.916 22.8008 252.896 24.0059 255.334 26.4129C257.765 28.8231 258.984 31.7508 258.984 35.2055C258.984 38.6601 257.765 41.591 255.334 43.998C252.896 46.405 249.916 47.6102 246.382 47.6102C242.849 47.6102 239.868 46.405 237.43 43.998C234.999 41.591 233.78 38.6601 233.78 35.2055Z" fill="#ECEFF0"/>
<path d="M119.083 43.3006C119.083 42.1341 119.501 41.1507 120.338 40.3569C121.175 39.5632 122.177 39.1647 123.351 39.1647C124.524 39.1647 125.53 39.5439 126.364 40.3055C127.201 41.0672 127.618 42.028 127.618 43.1978C127.618 44.3644 127.201 45.3445 126.364 46.1383C125.53 46.9353 124.524 47.3306 123.351 47.3306C122.213 47.3306 121.217 46.9417 120.364 46.164C119.507 45.3863 119.083 44.4319 119.083 43.3006Z" fill="#F18700"/>
</svg>
