<svg width="96" height="32" viewBox="0 0 96 32" fill="none" xmlns="http://www.w3.org/2000/svg">
<path fill-rule="evenodd" clip-rule="evenodd" d="M0 31.9973V0H12.3494C17.1009 0 20.9455 1.45193 23.8806 4.36127C26.8183 7.27061 28.2859 11.1497 28.2859 15.9986C28.2859 21.0612 26.4562 25.102 22.7994 28.1127C19.6389 30.7042 15.9365 31.9973 11.6867 31.9973H0ZM5.57776 26.8498H9.73896C13.487 26.8498 16.4677 26.0224 18.6811 24.365C21.1896 22.4967 22.4452 19.7079 22.4452 16.0014C22.4452 8.77185 18.5201 5.15298 10.6699 5.15298H5.57776V26.8498ZM34.2554 32V0H39.8305V12.7469H54.4845V0H60.0623V32H54.4845V17.8998H39.8305V32H34.2554ZM67.7142 0V32H79.401C83.6534 32 87.3558 30.707 90.5136 28.1154C94.1731 25.1047 96.0001 21.0639 96.0001 16.0014C96.0001 11.1497 94.5326 7.27061 91.5975 4.36127C88.6597 1.45193 84.8151 0 80.0637 0H67.7142ZM77.4505 26.8498H73.2893H73.2866V5.15298H78.3788C86.2317 5.15298 90.1541 8.77185 90.1541 16.0014C90.1541 19.7079 88.9012 22.4967 86.3926 24.365C84.1792 26.0224 81.1985 26.8498 77.4505 26.8498Z" fill="white"/>
</svg>
