<svg width="144" height="144" viewBox="0 0 144 144" fill="none" xmlns="http://www.w3.org/2000/svg">
<path fill-rule="evenodd" clip-rule="evenodd" d="M9 92.9964V51H25.2086C31.4449 51 36.4909 52.9057 40.3432 56.7242C44.1991 60.5427 46.1252 65.634 46.1252 71.9982C46.1252 78.6428 43.7237 83.9463 38.9241 87.8979C34.776 91.2993 29.9166 92.9964 24.3389 92.9964H9ZM16.3208 86.2403H21.7824C26.7017 86.2403 30.6138 85.1544 33.5189 82.9791C36.8114 80.5269 38.4593 76.8666 38.4593 72.0018C38.4593 62.5131 33.3076 57.7633 23.0043 57.7633H16.3208V86.2403ZM53.9602 93V51H61.2775V67.7302H80.5109V51H87.8317V93H80.5109V74.4935H61.2775V93H53.9602ZM97.8749 51V93H113.214C118.795 93 123.654 91.3029 127.799 87.9015C132.602 83.9499 135 78.6464 135 72.0018C135 65.634 133.074 60.5427 129.222 56.7242C125.366 52.9057 120.32 51 114.084 51H97.8749ZM110.654 86.2403H105.192H105.189V57.7633H111.872C122.179 57.7633 127.327 62.5131 127.327 72.0018C127.327 76.8666 125.683 80.5269 122.39 82.9791C119.485 85.1544 115.573 86.2403 110.654 86.2403Z" fill="white"/>
</svg>
