<svg width="144" height="144" viewBox="0 0 144 144" fill="none" xmlns="http://www.w3.org/2000/svg">
<path fill-rule="evenodd" clip-rule="evenodd" d="M113.849 118.133H101.39V65.2705C97.5758 70.9233 92.999 76.0377 87.7867 80.5723V118.112H75.3278V89.4552C71.0901 91.9192 66.5982 94.0312 61.8731 95.7498V118.133H49.4143V99.2284C43.7781 100.367 37.9301 100.968 31.9337 100.968C31.6159 100.968 31.2981 100.968 30.9803 100.968V89.3724C31.2981 89.3724 31.6159 89.3931 31.9337 89.3931C41.2991 89.3931 50.389 87.6952 58.9067 84.3408C67.1703 81.09 74.5862 76.4725 80.9428 70.5506C87.3205 64.6286 92.321 57.7542 95.8171 50.0723C99.3132 42.3904 101.135 34.2736 101.263 25.9083H113.785L113.806 27.9997V118.133H113.849ZM128.85 133V11H16V133H128.85ZM30.9803 65.167C31.2981 65.167 31.6159 65.1877 31.9337 65.1877C43.5027 65.1877 54.3724 61.0051 62.5511 53.4267C70.518 46.0346 74.9888 36.2821 75.2219 25.8876H87.7231C87.2146 54.0893 62.4452 76.8038 31.9337 76.8038C31.6159 76.8038 31.2981 76.8038 30.9803 76.7831V65.167ZM30.9803 41.1066C31.2981 41.1273 31.6159 41.1273 31.9337 41.1273C41.1931 41.1273 48.7998 34.3564 49.2871 25.8669H61.8095C61.301 40.7546 48.1218 52.7227 31.9549 52.7227C31.6371 52.7227 31.3193 52.7227 31.0014 52.702L30.9803 41.1066Z" fill="#80FFC2"/>
</svg>
