<svg width="184" height="64" viewBox="0 0 184 64" fill="none" xmlns="http://www.w3.org/2000/svg">
<g id="brand / rm1-logo" clip-path="url(#clip0_2404_557)">
<path id="vector" fill-rule="evenodd" clip-rule="evenodd" d="M0.265625 0V64H13.247V41.3125H22.7228L34.3529 64H48.6833L35.6563 39.1365C35.8435 39.0518 36.0286 38.9646 36.2116 38.875C39.5494 37.25 42.0977 34.9167 43.8565 31.875C45.6154 28.8125 46.4948 25.1563 46.4948 20.9063C46.4948 16.6771 45.6254 13 43.8865 9.875C42.1677 6.72917 39.6593 4.30208 36.3615 2.59375C33.0837 0.864584 29.1264 0 24.4895 0H0.265625ZM13.247 30.4375H22.0611C24.5394 30.4375 26.5981 30.0833 28.237 29.375C29.8759 28.6667 31.0951 27.6042 31.8945 26.1875C32.714 24.7708 33.1237 23.0104 33.1237 20.9063C33.1237 18.7813 32.714 16.9896 31.8945 15.5313C31.0951 14.0729 29.8659 12.9687 28.207 12.2188C26.5681 11.4479 24.4995 11.0625 22.0011 11.0625H13.247V30.4375ZM54.1338 0H69.3637L85.4493 43H86.1338L102.219 0H117.449V64H105.471V22.3438H104.986L89.8699 63.6875H81.7131L66.5972 22.1875H66.1124V64H54.1338V0ZM176.037 56.201H169.685V28.4698C167.734 31.4352 165.393 34.1181 162.726 36.4969V56.1901H156.353V41.1568C154.185 42.4494 151.887 43.5574 149.47 44.4589V56.201H143.097V46.2838C140.213 46.8812 137.222 47.1962 134.154 47.1962H133.667V41.1134C133.748 41.1134 133.829 41.1161 133.911 41.1188C133.992 41.1215 134.073 41.1242 134.154 41.1242C138.945 41.1242 143.595 40.2335 147.953 38.4739C152.18 36.7685 155.973 34.3462 159.225 31.2396C162.488 28.1331 165.046 24.5268 166.834 20.4969C168.623 16.4671 169.555 12.2091 169.62 7.82077H176.026L176.037 8.91785V56.201ZM183.732 64V0H126.004V64H183.732ZM133.667 28.4155C133.748 28.4155 133.829 28.4182 133.911 28.4209C133.992 28.4236 134.073 28.4263 134.154 28.4263C140.073 28.4263 145.633 26.2322 149.817 22.2566C153.892 18.3788 156.179 13.2627 156.299 7.80991H162.694C162.434 22.6042 149.763 34.52 134.154 34.52H134.154C133.992 34.52 133.829 34.52 133.667 34.5092V28.4155ZM133.667 15.7936C133.829 15.8045 133.992 15.8045 134.154 15.8045C138.891 15.8045 142.782 12.2525 143.032 7.79905H149.438C149.177 15.609 142.436 21.8873 134.165 21.8873C134.003 21.8873 133.84 21.8873 133.678 21.8764L133.667 15.7936Z" fill="white"/>
</g>
<defs>
<clipPath id="clip0_2404_557">
<rect width="183.467" height="64" fill="white" transform="translate(0.265625)"/>
</clipPath>
</defs>
</svg>
