<svg width="144" height="144" viewBox="0 0 144 144" fill="none" xmlns="http://www.w3.org/2000/svg">
<rect width="144" height="144" fill="none"/>
<rect x="30" y="46" width="84" height="53" rx="8" fill="#FF8F00"/>
<path d="M71.3366 71.9091C71.3366 74.7216 70.8168 77.1335 69.777 79.1449C68.7372 81.1477 67.3139 82.6861 65.5071 83.7599C63.7088 84.8253 61.6719 85.358 59.3963 85.358C57.1207 85.358 55.0838 84.821 53.2855 83.7472C51.4872 82.6733 50.0682 81.1349 49.0284 79.1321C47.9886 77.1207 47.4688 74.7131 47.4688 71.9091C47.4688 69.0966 47.9886 66.6889 49.0284 64.6861C50.0682 62.6747 51.4872 61.1364 53.2855 60.071C55.0838 58.9972 57.1207 58.4602 59.3963 58.4602C61.6719 58.4602 63.7088 58.9972 65.5071 60.071C67.3139 61.1364 68.7372 62.6747 69.777 64.6861C70.8168 66.6889 71.3366 69.0966 71.3366 71.9091ZM66.9134 71.9091C66.9134 69.8636 66.5895 68.1378 65.9418 66.7315C65.294 65.3253 64.4034 64.2642 63.2699 63.5483C62.1449 62.8239 60.8537 62.4616 59.3963 62.4616C57.9474 62.4616 56.6563 62.8239 55.5227 63.5483C54.3977 64.2642 53.5114 65.3253 52.8636 66.7315C52.2159 68.1378 51.892 69.8636 51.892 71.9091C51.892 73.9545 52.2159 75.6804 52.8636 77.0866C53.5114 78.4929 54.3977 79.5582 55.5227 80.2827C56.6563 80.9986 57.9474 81.3565 59.3963 81.3565C60.8537 81.3565 62.1449 80.9986 63.2699 80.2827C64.4034 79.5582 65.294 78.4929 65.9418 77.0866C66.5895 75.6804 66.9134 73.9545 66.9134 71.9091ZM95.2083 58.8182V85H91.2324L78.4994 66.6165H78.2693V85H73.846V58.8182H77.8602L90.5804 77.2145H90.8105V58.8182H95.2083Z" fill="#0A0A0A"/>
</svg>
